<svg xmlns="http://www.w3.org/2000/svg" width="256" height="256" viewBox="0 0 100 100"><rect width="100" height="100" rx="0" fill="#000000"></rect><path d="M34.12 69.71L36.46 59.27L48.56 26.15L56.66 25.39L38.03 76.42Q36.64 80.20 34.99 83.93Q33.35 87.67 31.28 90.61Q29.21 93.56 26.71 95.41Q24.22 97.25 21.16 97.25L21.16 97.25Q18.86 97.25 16.66 96.33Q14.45 95.41 12.61 93.78L12.61 93.78L15.89 88.97Q16.66 89.51 17.65 89.96Q18.64 90.41 19.72 90.41L19.72 90.41Q21.20 90.41 22.60 89.26Q23.99 88.12 25.27 86.31Q26.55 84.52 27.66 82.27Q28.76 80.02 29.66 77.77L29.66 77.77L10.90 26.15L19.45 25.39L31.78 59.27L34.12 69.71ZM76.42 2.75L76.42 58.73Q76.42 61.70 76.75 63.70Q77.09 65.71 77.74 66.94Q78.39 68.18 79.36 68.70Q80.33 69.22 81.59 69.22L81.59 69.22Q82.58 69.22 83.39 69.10Q84.20 68.99 84.78 68.81L84.78 68.81Q85.46 68.63 86 68.41L86 68.41L89.11 73.85Q88.75 74.21 87.96 74.64Q87.17 75.07 86.09 75.47Q85.01 75.88 83.64 76.15Q82.27 76.42 80.69 76.42L80.69 76.42Q76.64 76.42 74.12 74.93Q71.60 73.45 70.20 70.88Q68.81 68.32 68.34 64.92Q67.87 61.52 67.87 57.65L67.87 57.65L67.87 12.65L66.97 3.65L76.42 2.75Z" fill="#fff"></path></svg>